<svg width="660" height="977" viewBox="0 0 660 977" fill="none" xmlns="http://www.w3.org/2000/svg">
<path fill-rule="evenodd" clip-rule="evenodd" d="M3.01347 947.249C10.6807 925.641 40.6525 855.242 40.6525 855.242C30.8942 835.029 11.7959 774.946 13.4688 696.322C35.2157 716.396 46.2287 729.779 49.0167 733.961C45.5316 698.413 40.6525 619.371 49.0167 587.587C59.0538 605.988 74.1094 620.347 80.3826 625.226C76.2005 600.83 70.3455 536.565 80.3826 474.67C97.111 528.201 119.416 545.766 128.477 547.857C169.601 410.544 333.401 108.735 659.605 0V12.5463C646.362 22.3046 608.165 89.9155 561.326 282.293C502.776 295.676 451.894 333.872 433.771 351.298C436.559 355.48 458.446 362.589 523.687 357.571C540.415 367.608 501.382 457.942 479.775 501.854C461.652 507.43 415.788 524.437 377.313 547.857C400.733 556.221 433.074 556.918 446.318 556.221C431.68 600.83 357.239 700.086 176.571 740.234C156.497 745.253 131.962 774.388 122.204 788.329L222.574 761.145C193.997 778.57 136.841 815.512 136.841 823.877C136.841 834.332 189.118 815.512 216.301 796.693C182.844 845.205 106.172 869.88 72.0184 876.153C61.5631 899.155 39.3979 948.922 34.3793 963.977C28.1062 982.797 -11.0089 982.797 3.01347 947.249ZM44.8362 853.152C120.114 698.413 299.526 403.993 523.688 121.282C230.94 559.567 100.597 801.572 72.0194 867.789C72.0194 867.789 61.5647 876.153 51.1094 871.971C40.6541 867.789 44.8362 853.152 44.8362 853.152Z" fill="white"/>
</svg>
